<svg id="svg" version="1.1" xmlns="http://www.w3.org/2000/svg" xmlns:xlink="http://www.w3.org/1999/xlink" width="400" height="400" viewBox="0, 0, 400,400"><g id="svgg"><path id="path0" d="M107.895 10.230 L 55.263 13.158 53.657 41.236 C 52.450 62.333,48.184 74.652,36.500 90.782 C -5.622 148.929,-5.639 256.310,36.463 314.431 C 46.683 328.539,52.538 343.652,53.620 358.714 L 55.263 381.579 81.579 382.032 C 96.053 382.282,121.873 386.699,138.956 391.848 C 170.879 401.471,180.587 401.391,307.895 390.458 L 350.000 386.842 351.623 361.372 C 352.776 343.280,357.747 329.690,368.781 314.458 C 410.894 256.322,410.894 148.942,368.781 90.805 C 357.747 75.573,352.776 61.983,351.623 43.891 L 350.000 18.421 329.483 16.741 C 318.199 15.817,307.509 17.419,305.728 20.301 C 303.690 23.598,291.782 21.845,273.613 15.574 C 243.525 5.189,215.029 4.270,107.895 10.230 M278.947 48.790 L 302.632 60.526 304.087 134.211 L 305.541 207.895 279.993 206.132 C 265.941 205.163,245.154 206.871,233.801 209.928 C 222.447 212.985,211.803 214.963,210.148 214.322 C 208.492 213.682,198.502 222.584,187.947 234.105 C 156.016 268.960,152.757 321.114,180.111 359.529 L 191.393 375.373 171.301 372.112 C 160.250 370.319,140.279 363.426,126.920 356.794 L 102.632 344.737 101.183 268.421 L 99.734 192.105 132.762 191.832 C 185.783 191.393,197.200 187.852,217.677 165.501 C 247.791 132.630,252.239 79.772,228.017 42.636 C 217.653 26.746,239.882 29.432,278.947 48.790 M179.625 60.954 C 231.266 87.371,195.377 152.632,129.209 152.632 L 100.000 152.632 100.000 108.193 C 100.000 47.207,124.425 32.717,179.625 60.954 M52.202 203.947 C 51.786 284.226,51.508 286.261,43.364 268.421 C 27.200 233.010,32.562 121.053,50.423 121.053 C 51.638 121.053,52.438 158.355,52.202 203.947 M370.992 202.632 C 370.992 235.901,368.387 255.483,362.241 268.421 C 353.679 286.444,353.490 285.024,353.490 202.632 C 353.490 120.239,353.679 118.819,362.241 136.842 C 368.387 149.780,370.992 169.362,370.992 202.632 M305.263 294.092 C 305.263 355.511,282.388 368.470,225.707 339.159 C 174.319 312.585,209.062 248.038,275.000 247.579 L 305.263 247.368 305.263 294.092 " stroke="none" fill="#000000" fill-rule="evenodd"></path></g></svg>